<svg id="Component_85_1" data-name="Component 85 – 1" xmlns="http://www.w3.org/2000/svg" width="71" height="47" viewBox="0 0 71 47">
  <path id="Rectangle_126" data-name="Rectangle 126" d="M0,0H28a0,0,0,0,1,0,0V19a9,9,0,0,1-9,9H9a9,9,0,0,1-9-9V0A0,0,0,0,1,0,0Z" transform="translate(47 28) rotate(180)" fill="#1d6bb3"/>
  <g id="Component_84_1" data-name="Component 84 – 1" transform="translate(0 28)">
    <path id="Rectangle_127" data-name="Rectangle 127" d="M0,0H19a0,0,0,0,1,0,0V4A15,15,0,0,1,4,19H0a0,0,0,0,1,0,0V0A0,0,0,0,1,0,0Z" transform="translate(19 19) rotate(180)" fill="#ef5a2a"/>
  </g>
  <path id="Rectangle_128" data-name="Rectangle 128" d="M0,0H19a0,0,0,0,1,0,0V4A15,15,0,0,1,4,19H0a0,0,0,0,1,0,0V0A0,0,0,0,1,0,0Z" transform="translate(52 47) rotate(-90)" fill="#1d6bb3"/>
</svg>
