<svg id="Component_469_1" data-name="Component 469 – 1" xmlns="http://www.w3.org/2000/svg" width="377.89" height="257.164" viewBox="0 0 377.89 257.164">
  <g id="Group_843" data-name="Group 843" transform="translate(17.595 13.447)">
    <g id="Group_841" data-name="Group 841" transform="translate(34.978 68.63)">
      <path id="Path_1090" data-name="Path 1090" d="M234.63,288.732l16.746-.029q15.508-.023,21.83,3.06a27.131,27.131,0,0,1,11.906,10.663,31.462,31.462,0,0,1,4.028,16.188q.016,11.552-5.927,19.83t-17.974,11.544l21.054,49.772-18.745.031L246.9,351.333h-1.48l-5.722,48.5-18.1.03Zm12.938,44.392q14.693-.1,19.125-3.543t4.421-10.316a11.518,11.518,0,0,0-1.789-6.571A9.33,9.33,0,0,0,264.179,309q-3.364-1.052-13.643-1.034Z" transform="translate(-221.597 -288.323)"/>
      <path id="Path_1091" data-name="Path 1091" d="M305.744,288.609l51.85-.086-2.2,19.715-33.645.059-2.736,22.968,33.821-.059-2.177,19.568-33.974.056-3.51,29.466,34.2-.059-2.161,19.417-52.505.09Z" transform="translate(-225.057 -288.315)"/>
      <path id="Path_1092" data-name="Path 1092" d="M404.321,288.441l15.272-.025,24.169,111.071-17.568.031-5.144-23.633-38.256.063-10.938,23.661-19.47.034Zm12.252,67.81-7.754-36.584-16.936,36.627Z" transform="translate(-227.96 -288.309)"/>
      <path id="Path_1093" data-name="Path 1093" d="M467.952,288.335l18.212-.031-10.924,92.023,29.929-.052L503.1,399.39l-48.177.082Z" transform="translate(-232.948 -288.304)"/>
    </g>
    <g id="Group_842" data-name="Group 842">
      <path id="Path_1094" data-name="Path 1094" d="M234.919,261.867l.013,10.959-11.32.021-3.095,26.387-9.592.016,3.1-26.387-9.221.018-3.018,26.385-9.543.018,3.094-26.389-10.488.018-.014-10.96,11.788-.018,1.311-10.357-10.1.018-.013-10.961,11.3-.021,2.863-24.4,9.3-.016-2.645,24.4,9.168-.018,2.863-24.4,9.592-.016-2.862,24.4,10.217-.018.014,10.959-11.517.019-1.117,10.357Zm-18.4-10.321-9.285.015-1.183,10.355,9.253-.013Z" transform="translate(-184.83 -216.165)"/>
    </g>
  </g>
  <g id="Group_846" data-name="Group 846">
    <g id="Group_844" data-name="Group 844" transform="translate(0 108.623)">
      <path id="Path_1095" data-name="Path 1095" d="M190.457,316.208c-5.668.009-9.268,4.865-9.255,15.654.022,17.121,7.443,44.423,18.019,53.807-.061,19.795-1.827,48.5-11.855,64.153a28.656,28.656,0,0,0-5.238-.487c-10.65.018-15.8,4.975-15.791,9.429,0,3.166,2.583,5.836,7.821,5.826,4.9-.009,14-3.487,18.8-7.357a46.361,46.361,0,0,1,9.2,7.212c1.2.987,2.92-.6,2.918-2.283,0-2.278-6.967-6.717-9.028-7.9,10.462-12.388,15.661-43.077,15.623-72.173C211.626,347.741,204.541,316.185,190.457,316.208Zm-5.562,15.647c-.006-4.652.762-9.6,2.737-9.6,7.558-.013,11.05,45.01,11.5,57.778C190.613,369.749,184.915,346.4,184.895,331.855Zm-7.4,126.492c-3.005,1.392-7.3,2.883-7.3.114,0-4.058,9.012-4.865,11.932-4.87l1.975,0A28.3,28.3,0,0,1,177.5,458.346Z" transform="translate(-166.336 -316.208)" fill="#c24d96"/>
      <path id="Path_1096" data-name="Path 1096" d="M543.506,409.949c-1.8,5.348-9.251,20.7-15.693,20.712-3.177,0-1.732-12.863-1.734-15.142-.008-4.947-.871-8.8-4.391-8.8-3.436,0-5.922,3.869-7.461,8.621-.256.694-2.91,8.417-3.425,8.419-.858,0,.911-26.822-6.99-26.809-11.165.021-8.973,35.942-13.094,35.949-2.748,0-4.569-13.154-4.579-21.171a5.021,5.021,0,0,0-5.331-4.94c-2.314,0-4.335.98-4.723,3.471-5.544,13.935-11.939,21.5-16.809,21.506-6.7.011-3.892-21.468-3.212-25.824,1.707-10.2-8.775-12.158-11.6-2.356-1.368,4.754-7.016,20.2-11.311,20.4-2.577.1,2.211-16.728,6.934-16.735.945,0,1.547,0,2.062-.8,1.456-2.079-1.9-5.835-5.762-5.827-6.554.01-12.191,6.867-14.075,14.372-4.077,8.554-10.074,15.254-18.785,16.859-5.837,1.1-9.793-3.252-9.975-10.376,5.411,1.18,12.538-1.109,13.9-8.335,1.193-6.436-3.364-10.784-8.345-11.468-7.852-1.269-14.116,4.65-16.22,12.563-3.828,8.573-12.577,24.47-17.75,24.314-4.979-.191-1.4-19.893-1.4-22.068,0-3.763-3.784-5.536-11.261-7.7,1.284-3.665,2.4-7.031,2.391-11.09-.009-6.83-3.363-9.889-6.97-9.885-4.121.009-8.754,4.37-8.744,12.288.009,6.57,3.781,10.357,7.325,12.889-3.846,8.927-10.813,19.183-19.143,19.2-6.442.009-10.829-5.82-10.837-12.45,0-4.06,2.65-11.486,6.686-11.494,3.091,0,2.243,8.011,4.9,7.118a2.34,2.34,0,0,0,1.716-2.475c-.614-8.61-5.084-11.276-10.15-11.268-6.587.011-12.453,5.681-14.305,13.163-4.08,8.753-10.132,15.646-18.985,17.279-5.838,1.1-9.793-3.251-9.975-10.376,5.411,1.178,12.538-1.109,13.9-8.335,1.193-6.438-3.364-10.783-8.345-11.468-7.735-1.249-13.919,4.482-16.113,12.216-3.923,8.682-10.694,18.212-18.723,18.226-6.442.009-10.829-5.82-10.837-12.449,0-4.06,2.65-11.486,6.686-11.5,3.091,0,2.243,8.012,4.9,7.119a2.34,2.34,0,0,0,1.716-2.476c-.614-8.61-5.084-11.276-10.15-11.267-7.987.013-14.931,8.339-14.919,18.138.011,9.4,6.55,18.592,18.572,18.574,9.15-.016,16.635-6.382,22.112-14.958,1.574,11.831,11.814,16.158,21.776,13.5,7.907-2.106,13.581-6.709,18.094-13.659,1.457,8.018,7.765,15,18.243,14.982,11.9-.021,20.992-10.763,26.492-23.167a7.416,7.416,0,0,1,2.689,2.235c-1.276,9.5.812,29.394,9.227,29.379,6.69-.01,15.185-12.478,20.752-22.772,1.88,11.3,11.9,15.408,21.666,12.8,7.773-2.071,13.392-6.555,17.868-13.309,1.429,6.208,6.979,8.454,12.531,4.942,3.346-2.083,6.6-7.63,8.916-12.484.011,9.8,1.832,23.156,11.709,23.138,6.384-.009,14.512-5.975,21.228-19.627.848,8.872,3.491,19.585,11.5,19.572,8.073-.013,10.022-19.117,11.814-31.392.085,1.086.087,2.573.1,8.114.008,6.532,1.136,15.339,6.8,15.33,3.865-.01,6.607-4.27,8.492-8.428.438,6.532,2.077,14.148,8.779,14.435,10.649-.019,20.076-14.783,23.154-25.377C547.368,409.249,544.619,407.769,543.506,409.949Zm-143.612-1.242c1.89-.8,3.78,1.183,3.526,3.458-.424,4.85-5.919,5.454-9.356,4.768C394.746,413.864,397.062,409.9,399.894,408.708Zm-117.162.2c1.889-.8,3.78,1.18,3.526,3.458-.424,4.849-5.919,5.454-9.356,4.767C277.584,414.065,279.9,410.1,282.732,408.908Zm67.07-14.762c.773,0,1.373,1.184,1.377,3.661a31.414,31.414,0,0,1-2.047,9.7c-1.808-1.58-2.153-3.856-2.157-6.825C346.969,396.626,348.514,394.149,349.8,394.146Z" transform="translate(-169.166 -319.692)" fill="#c24d96"/>
    </g>
    <g id="Group_845" data-name="Group 845" transform="translate(34.176)">
      <path id="Path_1097" data-name="Path 1097" d="M228.78,265.147a190.326,190.326,0,0,1,2.032-26.986c-5.071-.759-21.487-6.575-25.813,1.121a1.586,1.586,0,0,1-1.334.848,1.633,1.633,0,0,1-1.405-1.766,3.034,3.034,0,0,1,.2-1c4.391-7.771,22.206-5.649,29.147-4.044.264-1.771.86-4.616,1.654-8.922,1.664-5,9.2-2.708,9.208.751,0-.46-1.591,9.076-1.989,10.383,7.008,1.834,13.414,4.2,20.218,4.347,2.05-14.609,6.1-27.684,13.833-34.232,9.86-8.394,21.212-1.264,19.762,12.036-.849,15.146-12.646,23.085-24.517,25.563a299.341,299.341,0,0,0-2.157,34.6c0,.615,0,.692,0,1.228s0,1.614-.13,4.306c2.131-3.615,5.508-23.071,13.58-23.085,9.472-.016,2.7,24.671,8.77,24.663,4.737-.164,10.2-9.244,11.792-13.705.533-1.232,3.267-.468,2.736,1.378-2.657,8.153-9.049,17.236-16.988,17.249-9.806.016-9.766-21.277-9.9-21.277-1.4,0-9.91,24-10.309,24.849-1.8,3.46-7.8,3.549-8.8-.677l.184-10.995c-2.989,8.849-8.917,16.315-14.719,16.323C230.222,298.122,228.793,276.447,228.78,265.147Zm9.141,2.673c.006,4.229-.365,27.214,7.041,27.2,6.2-.009,13.718-19.088,13.712-23.237a248.468,248.468,0,0,1,1.5-27.985c-6.471-.066-12.745-1.514-20.554-3.5A230.712,230.712,0,0,0,237.92,267.821Zm42.089-56.573c-4.73,5.852-8.116,17.388-9.637,28,10.4-2.248,19.733-9.259,21.185-21.638C292.745,208,285.536,204.091,280.009,211.248Z" transform="translate(-202.26 -202.03)" fill="#c24d96"/>
      <path id="Path_1098" data-name="Path 1098" d="M321.392,291.254c8-1.474,13.063-8.48,16.188-16.863.465-1.539,3.133-.236,2.734,1.378-4.121,10.463-9.45,16.931-18.452,19.328-8.4,2.243-17.08-1.892-17.093-12.964-.012-8.225,5.648-15.536,13.189-14.318a7.421,7.421,0,0,1,6.483,8.9c-1.059,5.614-6.595,7.391-10.8,6.475C313.783,288.73,316.855,292.109,321.392,291.254Zm-7.355-11.6c2.669.532,6.939.064,7.268-3.7.2-1.766-1.274-3.3-2.74-2.685C316.365,274.2,314.568,277.273,314.037,279.658Z" transform="translate(-207.247 -205.224)" fill="#c24d96"/>
    </g>
  </g>
</svg>
